# Blender 4.3.2
# www.blender.org
mtllib target.mtl
o 圓錐體
v 0.000000 -0.028560 0.030641
v 0.006520 -0.028011 0.030641
v 0.012790 -0.026386 0.030641
v 0.018568 -0.023746 0.030641
v 0.023633 -0.020195 0.030641
v 0.027789 -0.015867 0.030641
v 0.030878 -0.010929 0.030641
v 0.032780 -0.005572 0.030641
v 0.033422 0.000000 0.030641
v 0.032780 0.005572 0.030641
v 0.030878 0.010929 0.030641
v 0.027789 0.015867 0.030641
v 0.023633 0.020195 0.030641
v 0.018568 0.023746 0.030641
v 0.012790 0.026386 0.030641
v 0.006520 0.028011 0.030641
v 0.000000 0.028560 0.030641
v -0.006520 0.028011 0.030641
v -0.012790 0.026386 0.030641
v -0.018568 0.023746 0.030641
v -0.023633 0.020195 0.030641
v -0.027789 0.015867 0.030641
v -0.030878 0.010929 0.030641
v -0.032780 0.005572 0.030641
v -0.033422 0.000000 0.030641
v -0.032780 -0.005572 0.030641
v -0.030878 -0.010929 0.030641
v -0.027789 -0.015867 0.030641
v -0.023633 -0.020195 0.030641
v -0.018568 -0.023746 0.030641
v -0.012790 -0.026386 0.030641
v -0.006520 -0.028011 0.030641
v 0.000000 -0.000000 -0.030641
vn 0.0761 -0.9038 -0.4212
vn 0.2272 -0.8764 -0.4247
vn 0.3748 -0.8206 -0.4315
vn 0.5153 -0.7349 -0.4409
vn 0.6434 -0.6180 -0.4518
vn 0.7516 -0.4702 -0.4626
vn 0.8311 -0.2950 -0.4714
vn 0.8735 -0.1007 -0.4764
vn 0.8735 0.1007 -0.4764
vn 0.8311 0.2950 -0.4714
vn 0.7516 0.4702 -0.4626
vn 0.6434 0.6180 -0.4518
vn 0.5153 0.7349 -0.4409
vn 0.3748 0.8206 -0.4315
vn 0.2272 0.8764 -0.4247
vn 0.0761 0.9038 -0.4212
vn -0.0761 0.9038 -0.4212
vn -0.2272 0.8764 -0.4247
vn -0.3748 0.8206 -0.4315
vn -0.5153 0.7349 -0.4409
vn -0.6434 0.6180 -0.4518
vn -0.7516 0.4702 -0.4626
vn -0.8311 0.2950 -0.4714
vn -0.8735 0.1007 -0.4764
vn -0.8735 -0.1007 -0.4764
vn -0.8311 -0.2950 -0.4714
vn -0.7516 -0.4702 -0.4626
vn -0.6434 -0.6180 -0.4518
vn -0.5153 -0.7349 -0.4409
vn -0.3748 -0.8206 -0.4315
vn -0.0000 -0.0000 1.0000
vn -0.2272 -0.8764 -0.4247
vn -0.0761 -0.9038 -0.4212
s 0
f 1/1/1 33/2/1 2/3/1
f 2/3/2 33/2/2 3/4/2
f 3/4/3 33/2/3 4/5/3
f 4/5/4 33/2/4 5/6/4
f 5/6/5 33/2/5 6/7/5
f 6/7/6 33/2/6 7/8/6
f 7/8/7 33/2/7 8/9/7
f 8/9/8 33/2/8 9/10/8
f 9/10/9 33/2/9 10/11/9
f 10/11/10 33/2/10 11/12/10
f 11/12/11 33/2/11 12/13/11
f 12/13/12 33/2/12 13/14/12
f 13/14/13 33/2/13 14/15/13
f 14/15/14 33/2/14 15/16/14
f 15/16/15 33/2/15 16/17/15
f 16/17/16 33/2/16 17/18/16
f 17/18/17 33/2/17 18/19/17
f 18/19/18 33/2/18 19/20/18
f 19/20/19 33/2/19 20/21/19
f 20/21/20 33/2/20 21/22/20
f 21/22/21 33/2/21 22/23/21
f 22/23/22 33/2/22 23/24/22
f 23/24/23 33/2/23 24/25/23
f 24/25/24 33/2/24 25/26/24
f 25/26/25 33/2/25 26/27/25
f 26/27/26 33/2/26 27/28/26
f 27/28/27 33/2/27 28/29/27
f 28/29/28 33/2/28 29/30/28
f 29/30/29 33/2/29 30/31/29
f 30/31/30 33/2/30 31/32/30
f 1/33/31 2/34/31 3/35/31 4/36/31 5/37/31 6/38/31 7/39/31 8/40/31 9/41/31 10/42/31 11/43/31 12/44/31 13/45/31 14/46/31 15/47/31 16/48/31 17/49/31 18/50/31 19/51/31 20/52/31 21/53/31 22/54/31 23/55/31 24/56/31 25/57/31 26/58/31 27/59/31 28/60/31 29/61/31 30/62/31 31/63/31 32/64/31
f 31/32/32 33/2/32 32/65/32
f 32/65/33 33/2/33 1/1/33
